{
  "accessors": [
    {
      "bufferView": 0,
      "componentType": 5126,
      "count": 3001,
      "max": [
        49.68120193481445,
        303.6817932128906,
        110.6008529663086
      ],
      "min": [
        -93.85358428955078,
        -4.2132439613342285,
        -111.65813446044922
      ],
      "name": "positions",
      "type": "VEC3"
    },
    {
      "bufferView": 1,
      "componentType": 5125,
      "count": 17994,
      "name": "pos_index",
      "type": "SCALAR"
    },
    {
      "bufferView": 2,
      "componentType": 5126,
      "count": 3001,
      "name": "normals",
      "type": "VEC3"
    },
    {
      "bufferView": 3,
      "componentType": 5126,
      "count": 3002,
      "max": [
        64.65047454833984,
        266.9975280761719,
        56.03483200073242
      ],
      "min": [
        27.458494186401367,
        226.98037719726563,
        4.246798992156982
      ],
      "name": "positions",
      "type": "VEC3"
    },
    {
      "bufferView": 4,
      "componentType": 5125,
      "count": 18000,
      "name": "pos_index",
      "type": "SCALAR"
    },
    {
      "bufferView": 5,
      "componentType": 5126,
      "count": 3002,
      "name": "normals",
      "type": "VEC3"
    },
    {
      "bufferView": 6,
      "componentType": 5126,
      "count": 3002,
      "max": [
        56.909114837646484,
        266.9949951171875,
        -9.445737838745117
      ],
      "min": [
        19.708740234375,
        226.96673583984375,
        -61.23203659057617
      ],
      "name": "positions",
      "type": "VEC3"
    },
    {
      "bufferView": 7,
      "componentType": 5125,
      "count": 18000,
      "name": "pos_index",
      "type": "SCALAR"
    },
    {
      "bufferView": 8,
      "componentType": 5126,
      "count": 3002,
      "name": "normals",
      "type": "VEC3"
    }
  ],
  "asset": {
    "version": "2.0"
  },
  "bufferViews": [
    {
      "buffer": 0,
      "byteLength": 36012,
      "name": "positions",
      "target": 34962
    },
    {
      "buffer": 1,
      "byteLength": 71976,
      "name": "pos_index",
      "target": 34963
    },
    {
      "buffer": 2,
      "byteLength": 36012,
      "name": "normals",
      "target": 34962
    },
    {
      "buffer": 3,
      "byteLength": 36024,
      "name": "positions",
      "target": 34962
    },
    {
      "buffer": 4,
      "byteLength": 72000,
      "name": "pos_index",
      "target": 34963
    },
    {
      "buffer": 5,
      "byteLength": 36024,
      "name": "normals",
      "target": 34962
    },
    {
      "buffer": 6,
      "byteLength": 36024,
      "name": "positions",
      "target": 34962
    },
    {
      "buffer": 7,
      "byteLength": 72000,
      "name": "pos_index",
      "target": 34963
    },
    {
      "buffer": 8,
      "byteLength": 36024,
      "name": "normals",
      "target": 34962
    }
  ],
  "buffers": [
    {
      "byteLength": 36012,
      "name": "positions",
      "uri": "data:application/octet-stream;base64,"
    },
    {
      "byteLength": 71976,
      "name": "pos_index",
      "uri": "data:application/octet-stream;base64,"
    },
    {
      "byteLength": 36012,
      "name": "normals",
      "uri": "data:application/octet-stream;base64,"
    },
    {
      "byteLength": 36024,
      "name": "positions",
      "uri": "data:application/octet-stream;base64,"
    },
    {
      "byteLength": 72000,
      "name": "pos_index",
      "uri": "data:application/octet-stream;base64,"
    },
    {
      "byteLength": 36024,
      "name": "normals",
      "uri": "data:application/octet-stream;base64,"
    },
    {
      "byteLength": 36024,
      "name": "positions",
      "uri": "data:application/octet-stream;base64,"
    },
    {
      "byteLength": 72000,
      "name": "pos_index",
      "uri": "data:application/octet-stream;base64,"
    },
    {
      "byteLength": 36024,
      "name": "normals",
      "uri": "data:application/octet-stream;base64,"
    }
  ],
  "extensionsUsed": [
    "KHR_materials_transmission"
  ],
  "meshes": [
    {
      "name": "Metal-body",
      "primitives": [
        {
          "attributes": {
            "NORMAL": 2,
            "POSITION": 0
          },
          "indices": 1,
          "mode": 4
        }
      ]
    },
    {
      "name": "Blue-eye-2",
      "primitives": [
        {
          "attributes": {
            "NORMAL": 5,
            "POSITION": 3
          },
          "indices": 4,
          "mode": 4
        }
      ]
    },
    {
      "name": "Blue-eye-1",
      "primitives": [
        {
          "attributes": {
            "NORMAL": 8,
            "POSITION": 6
          },
          "indices": 7,
          "mode": 4
        }
      ]
    }
  ],
  "nodes": [
    {
      "mesh": 0,
      "name": "Metal-body"
    },
    {
      "mesh": 1,
      "name": "Blue-eye-2"
    },
    {
      "mesh": 2,
      "name": "Blue-eye-1"
    }
  ],
  "scene": 0,
  "scenes": [
    {
      "nodes": [
        0,
        1,
        2
      ]
    }
  ]
}
