{
	"asset":{
		"version":"2.0",
		"generator":"Created using the official Cinema 4D glTF Exporter 1.000x284978"
	},
	"scenes":[{
		"nodes":[0,
		16]
	}],
	"nodes":[{
		"name":"Blue_Gems",
		"children":[1,
		2,
		3,
		4,
		5,
		6,
		7,
		8,
		9,
		10,
		11,
		12,
		13,
		14,
		15]
	},
	{
		"name":"Sphere_0",
		"mesh":0
	},
	{
		"name":"Sphere_1",
		"mesh":1
	},
	{
		"name":"Sphere_2",
		"mesh":2
	},
	{
		"name":"Sphere_3",
		"mesh":3
	},
	{
		"name":"Sphere_4",
		"mesh":4
	},
	{
		"name":"Sphere_5",
		"mesh":5
	},
	{
		"name":"Sphere_6",
		"mesh":6
	},
	{
		"name":"Sphere_7",
		"mesh":7
	},
	{
		"name":"Sphere_8",
		"mesh":8
	},
	{
		"name":"Sphere_9",
		"mesh":9
	},
	{
		"name":"Sphere_10",
		"mesh":10
	},
	{
		"name":"Sphere_11",
		"mesh":11
	},
	{
		"name":"Sphere_12",
		"mesh":12
	},
	{
		"name":"Sphere_13",
		"mesh":13
	},
	{
		"name":"Sphere_14",
		"mesh":14
	},
	{
		"name":"Metal_corals",
		"children":[17]
	},
	{
		"name":"Coral",
		"mesh":15
	}],
	"meshes":[{
		"name":"Sphere_0",
		"primitives":[{
			"attributes":{
				"POSITION":1,
				"NORMAL":2,
				"TEXCOORD_0":3
			},
			"indices":0,
			"material":0
		}]
	},
	{
		"name":"Sphere_1",
		"primitives":[{
			"attributes":{
				"POSITION":5,
				"NORMAL":6,
				"TEXCOORD_0":7
			},
			"indices":4,
			"material":0
		}]
	},
	{
		"name":"Sphere_2",
		"primitives":[{
			"attributes":{
				"POSITION":9,
				"NORMAL":10,
				"TEXCOORD_0":11
			},
			"indices":8,
			"material":0
		}]
	},
	{
		"name":"Sphere_3",
		"primitives":[{
			"attributes":{
				"POSITION":13,
				"NORMAL":14,
				"TEXCOORD_0":15
			},
			"indices":12,
			"material":0
		}]
	},
	{
		"name":"Sphere_4",
		"primitives":[{
			"attributes":{
				"POSITION":17,
				"NORMAL":18,
				"TEXCOORD_0":19
			},
			"indices":16,
			"material":0
		}]
	},
	{
		"name":"Sphere_5",
		"primitives":[{
			"attributes":{
				"POSITION":21,
				"NORMAL":22,
				"TEXCOORD_0":23
			},
			"indices":20,
			"material":0
		}]
	},
	{
		"name":"Sphere_6",
		"primitives":[{
			"attributes":{
				"POSITION":25,
				"NORMAL":26,
				"TEXCOORD_0":27
			},
			"indices":24,
			"material":0
		}]
	},
	{
		"name":"Sphere_7",
		"primitives":[{
			"attributes":{
				"POSITION":29,
				"NORMAL":30,
				"TEXCOORD_0":31
			},
			"indices":28,
			"material":0
		}]
	},
	{
		"name":"Sphere_8",
		"primitives":[{
			"attributes":{
				"POSITION":33,
				"NORMAL":34,
				"TEXCOORD_0":35
			},
			"indices":32,
			"material":0
		}]
	},
	{
		"name":"Sphere_9",
		"primitives":[{
			"attributes":{
				"POSITION":37,
				"NORMAL":38,
				"TEXCOORD_0":39
			},
			"indices":36,
			"material":0
		}]
	},
	{
		"name":"Sphere_10",
		"primitives":[{
			"attributes":{
				"POSITION":41,
				"NORMAL":42,
				"TEXCOORD_0":43
			},
			"indices":40,
			"material":0
		}]
	},
	{
		"name":"Sphere_11",
		"primitives":[{
			"attributes":{
				"POSITION":45,
				"NORMAL":46,
				"TEXCOORD_0":47
			},
			"indices":44,
			"material":0
		}]
	},
	{
		"name":"Sphere_12",
		"primitives":[{
			"attributes":{
				"POSITION":49,
				"NORMAL":50,
				"TEXCOORD_0":51
			},
			"indices":48,
			"material":0
		}]
	},
	{
		"name":"Sphere_13",
		"primitives":[{
			"attributes":{
				"POSITION":53,
				"NORMAL":54,
				"TEXCOORD_0":55
			},
			"indices":52,
			"material":0
		}]
	},
	{
		"name":"Sphere_14",
		"primitives":[{
			"attributes":{
				"POSITION":57,
				"NORMAL":58,
				"TEXCOORD_0":59
			},
			"indices":56,
			"material":0
		}]
	},
	{
		"name":"Coral",
		"primitives":[{
			"attributes":{
				"POSITION":61,
				"NORMAL":62,
				"TEXCOORD_0":63
			},
			"indices":60,
			"material":0
		}]
	}],
	"accessors":[{
		"count":672,
		"bufferView":0,
		"type":"SCALAR",
		"componentType":5123,
		"byteOffset":0,
		"min":[0],
		"max":[150]
	},
	{
		"count":151,
		"bufferView":1,
		"type":"VEC3",
		"componentType":5126,
		"byteOffset":0,
		"min":[-0.4335069954395294,
		6.392871856689453,
		4.50593376159668],
		"max":[2.9926741123199465,
		10.905330657958985,
		7.509994983673096]
	},
	{
		"count":151,
		"bufferView":1,
		"type":"VEC3",
		"componentType":5126,
		"byteOffset":12,
		"min":[-0.9974063038825989,
		-0.9880625605583191,
		-0.9945312738418579],
		"max":[0.9974063038825989,
		0.9880625605583191,
		0.9945312738418579]
	},
	{
		"count":151,
		"bufferView":1,
		"type":"VEC2",
		"componentType":5126,
		"byteOffset":24,
		"min":[0.0,
		0.0],
		"max":[1.0,
		1.0]
	},
	{
		"count":672,
		"bufferView":2,
		"type":"SCALAR",
		"componentType":5123,
		"byteOffset":0,
		"min":[0],
		"max":[150]
	},
	{
		"count":151,
		"bufferView":3,
		"type":"VEC3",
		"componentType":5126,
		"byteOffset":0,
		"min":[-11.712211608886719,
		14.482653617858887,
		3.066528081893921],
		"max":[-8.02751636505127,
		18.646099090576173,
		6.191501140594482]
	},
	{
		"count":151,
		"bufferView":3,
		"type":"VEC3",
		"componentType":5126,
		"byteOffset":12,
		"min":[-0.9914063215255737,
		-0.9899063110351563,
		-0.9885938167572022],
		"max":[0.9914063215255737,
		0.9899063110351563,
		0.9885938167572022]
	},
	{
		"count":151,
		"bufferView":3,
		"type":"VEC2",
		"componentType":5126,
		"byteOffset":24,
		"min":[0.0,
		0.0],
		"max":[1.0,
		1.0]
	},
	{
		"count":672,
		"bufferView":4,
		"type":"SCALAR",
		"componentType":5123,
		"byteOffset":0,
		"min":[0],
		"max":[150]
	},
	{
		"count":151,
		"bufferView":5,
		"type":"VEC3",
		"componentType":5126,
		"byteOffset":0,
		"min":[-13.191471099853516,
		-3.630115032196045,
		-0.41824299097061159],
		"max":[-10.2865629196167,
		0.6717299818992615,
		3.2007570266723635]
	},
	{
		"count":151,
		"bufferView":5,
		"type":"VEC3",
		"componentType":5126,
		"byteOffset":12,
		"min":[-0.9883750677108765,
		-0.9699062705039978,
		-0.9769688248634338],
		"max":[0.9883750677108765,
		0.9699062705039978,
		0.9769688248634338]
	},
	{
		"count":151,
		"bufferView":5,
		"type":"VEC2",
		"componentType":5126,
		"byteOffset":24,
		"min":[0.0,
		0.0],
		"max":[1.0,
		1.0]
	},
	{
		"count":672,
		"bufferView":6,
		"type":"SCALAR",
		"componentType":5123,
		"byteOffset":0,
		"min":[0],
		"max":[150]
	},
	{
		"count":151,
		"bufferView":7,
		"type":"VEC3",
		"componentType":5126,
		"byteOffset":0,
		"min":[-12.056288719177246,
		-9.138346672058106,
		-20.173200607299806],
		"max":[-8.437071800231934,
		-4.930741786956787,
		-17.11610221862793]
	},
	{
		"count":151,
		"bufferView":7,
		"type":"VEC3",
		"componentType":5126,
		"byteOffset":12,
		"min":[-0.9770000576972961,
		-0.9782500267028809,
		-0.983375072479248],
		"max":[0.9770000576972961,
		0.9782500267028809,
		0.983375072479248]
	},
	{
		"count":151,
		"bufferView":7,
		"type":"VEC2",
		"componentType":5126,
		"byteOffset":24,
		"min":[0.0,
		0.0],
		"max":[1.0,
		1.0]
	},
	{
		"count":672,
		"bufferView":8,
		"type":"SCALAR",
		"componentType":5123,
		"byteOffset":0,
		"min":[0],
		"max":[150]
	},
	{
		"count":151,
		"bufferView":9,
		"type":"VEC3",
		"componentType":5126,
		"byteOffset":0,
		"min":[-12.828250885009766,
		-0.10302899777889252,
		2.658730983734131],
		"max":[-8.60817813873291,
		2.7847900390625,
		6.43342399597168]
	},
	{
		"count":151,
		"bufferView":9,
		"type":"VEC3",
		"componentType":5126,
		"byteOffset":12,
		"min":[-0.9715937972068787,
		-0.9898125529289246,
		-0.9982500672340393],
		"max":[0.9715937972068787,
		0.9898125529289246,
		0.9982500672340393]
	},
	{
		"count":151,
		"bufferView":9,
		"type":"VEC2",
		"componentType":5126,
		"byteOffset":24,
		"min":[0.0,
		0.0],
		"max":[1.0,
		1.0]
	},
	{
		"count":672,
		"bufferView":10,
		"type":"SCALAR",
		"componentType":5123,
		"byteOffset":0,
		"min":[0],
		"max":[150]
	},
	{
		"count":151,
		"bufferView":11,
		"type":"VEC3",
		"componentType":5126,
		"byteOffset":0,
		"min":[-11.507813453674317,
		4.882451057434082,
		-24.130048751831056],
		"max":[-7.8155717849731449,
		9.409682273864746,
		-21.5133056640625]
	},
	{
		"count":151,
		"bufferView":11,
		"type":"VEC3",
		"componentType":5126,
		"byteOffset":12,
		"min":[-0.9967188239097595,
		-0.991281270980835,
		-0.9907500743865967],
		"max":[0.9967188239097595,
		0.991281270980835,
		0.9907500743865967]
	},
	{
		"count":151,
		"bufferView":11,
		"type":"VEC2",
		"componentType":5126,
		"byteOffset":24,
		"min":[0.0,
		0.0],
		"max":[1.0,
		1.0]
	},
	{
		"count":672,
		"bufferView":12,
		"type":"SCALAR",
		"componentType":5123,
		"byteOffset":0,
		"min":[0],
		"max":[150]
	},
	{
		"count":151,
		"bufferView":13,
		"type":"VEC3",
		"componentType":5126,
		"byteOffset":0,
		"min":[2.0960330963134767,
		23.976959228515626,
		4.196438789367676],
		"max":[5.081429958343506,
		28.216066360473634,
		7.839939117431641]
	},
	{
		"count":151,
		"bufferView":13,
		"type":"VEC3",
		"componentType":5126,
		"byteOffset":12,
		"min":[-0.9792500734329224,
		-0.9828750491142273,
		-0.9857813119888306],
		"max":[0.9792500734329224,
		0.9828750491142273,
		0.9857813119888306]
	},
	{
		"count":151,
		"bufferView":13,
		"type":"VEC2",
		"componentType":5126,
		"byteOffset":24,
		"min":[0.0,
		0.0],
		"max":[1.0,
		1.0]
	},
	{
		"count":672,
		"bufferView":14,
		"type":"SCALAR",
		"componentType":5123,
		"byteOffset":0,
		"min":[0],
		"max":[150]
	},
	{
		"count":151,
		"bufferView":15,
		"type":"VEC3",
		"componentType":5126,
		"byteOffset":0,
		"min":[-11.3396577835083,
		-3.7862799167633058,
		-18.810890197753908],
		"max":[-7.6885528564453129,
		-0.06030900031328201,
		-15.096783638000489]
	},
	{
		"count":151,
		"bufferView":15,
		"type":"VEC3",
		"componentType":5126,
		"byteOffset":12,
		"min":[-0.9985312819480896,
		-0.9874687790870667,
		-0.9823125600814819],
		"max":[0.9985312819480896,
		0.9874687790870667,
		0.9823125600814819]
	},
	{
		"count":151,
		"bufferView":15,
		"type":"VEC2",
		"componentType":5126,
		"byteOffset":24,
		"min":[0.0,
		0.0],
		"max":[1.0,
		1.0]
	},
	{
		"count":672,
		"bufferView":16,
		"type":"SCALAR",
		"componentType":5123,
		"byteOffset":0,
		"min":[0],
		"max":[150]
	},
	{
		"count":151,
		"bufferView":17,
		"type":"VEC3",
		"componentType":5126,
		"byteOffset":0,
		"min":[-19.918521881103517,
		22.122806549072267,
		-10.046111106872559],
		"max":[-16.21984100341797,
		26.44305419921875,
		-7.192214012145996]
	},
	{
		"count":151,
		"bufferView":17,
		"type":"VEC3",
		"componentType":5126,
		"byteOffset":12,
		"min":[-0.998468816280365,
		-0.9637500643730164,
		-0.9948750734329224],
		"max":[0.998468816280365,
		0.9637500643730164,
		0.9948750734329224]
	},
	{
		"count":151,
		"bufferView":17,
		"type":"VEC2",
		"componentType":5126,
		"byteOffset":24,
		"min":[0.0,
		0.0],
		"max":[1.0,
		1.0]
	},
	{
		"count":672,
		"bufferView":18,
		"type":"SCALAR",
		"componentType":5123,
		"byteOffset":0,
		"min":[0],
		"max":[150]
	},
	{
		"count":151,
		"bufferView":19,
		"type":"VEC3",
		"componentType":5126,
		"byteOffset":0,
		"min":[-8.693456649780274,
		-11.807360649108887,
		-2.630810022354126],
		"max":[-5.401724815368652,
		-7.413668155670166,
		0.5645710229873657]
	},
	{
		"count":151,
		"bufferView":19,
		"type":"VEC3",
		"componentType":5126,
		"byteOffset":12,
		"min":[-0.9889063239097595,
		-0.9620313048362732,
		-0.9918438196182251],
		"max":[0.9889063239097595,
		0.9620313048362732,
		0.9918438196182251]
	},
	{
		"count":151,
		"bufferView":19,
		"type":"VEC2",
		"componentType":5126,
		"byteOffset":24,
		"min":[0.0,
		0.0],
		"max":[1.0,
		1.0]
	},
	{
		"count":672,
		"bufferView":20,
		"type":"SCALAR",
		"componentType":5123,
		"byteOffset":0,
		"min":[0],
		"max":[150]
	},
	{
		"count":151,
		"bufferView":21,
		"type":"VEC3",
		"componentType":5126,
		"byteOffset":0,
		"min":[-10.385382652282715,
		21.944379806518556,
		1.6370929479599],
		"max":[-6.858293056488037,
		26.453311920166017,
		4.487432956695557]
	},
	{
		"count":151,
		"bufferView":21,
		"type":"VEC3",
		"componentType":5126,
		"byteOffset":12,
		"min":[-0.9965313076972961,
		-0.987281322479248,
		-0.9904375672340393],
		"max":[0.9965313076972961,
		0.987281322479248,
		0.9904375672340393]
	},
	{
		"count":151,
		"bufferView":21,
		"type":"VEC2",
		"componentType":5126,
		"byteOffset":24,
		"min":[0.0,
		0.0],
		"max":[1.0,
		1.0]
	},
	{
		"count":672,
		"bufferView":22,
		"type":"SCALAR",
		"componentType":5123,
		"byteOffset":0,
		"min":[0],
		"max":[150]
	},
	{
		"count":151,
		"bufferView":23,
		"type":"VEC3",
		"componentType":5126,
		"byteOffset":0,
		"min":[-10.914586067199707,
		26.229602813720704,
		6.993717193603516],
		"max":[-7.230088233947754,
		30.045818328857423,
		10.541595458984375]
	},
	{
		"count":151,
		"bufferView":23,
		"type":"VEC3",
		"componentType":5126,
		"byteOffset":12,
		"min":[-0.9945937991142273,
		-0.990906298160553,
		-0.9768437743186951],
		"max":[0.9945937991142273,
		0.990906298160553,
		0.9768437743186951]
	},
	{
		"count":151,
		"bufferView":23,
		"type":"VEC2",
		"componentType":5126,
		"byteOffset":24,
		"min":[0.0,
		0.0],
		"max":[1.0,
		1.0]
	},
	{
		"count":672,
		"bufferView":24,
		"type":"SCALAR",
		"componentType":5123,
		"byteOffset":0,
		"min":[0],
		"max":[150]
	},
	{
		"count":151,
		"bufferView":25,
		"type":"VEC3",
		"componentType":5126,
		"byteOffset":0,
		"min":[3.090791940689087,
		9.990233421325684,
		-17.484098434448243],
		"max":[6.126585006713867,
		14.45985221862793,
		-14.056302070617676]
	},
	{
		"count":151,
		"bufferView":25,
		"type":"VEC3",
		"componentType":5126,
		"byteOffset":12,
		"min":[-0.9944062829017639,
		-0.9786875247955322,
		-0.9985000491142273],
		"max":[0.9944062829017639,
		0.9786875247955322,
		0.9985000491142273]
	},
	{
		"count":151,
		"bufferView":25,
		"type":"VEC2",
		"componentType":5126,
		"byteOffset":24,
		"min":[0.0,
		0.0],
		"max":[1.0,
		1.0]
	},
	{
		"count":672,
		"bufferView":26,
		"type":"SCALAR",
		"componentType":5123,
		"byteOffset":0,
		"min":[0],
		"max":[150]
	},
	{
		"count":151,
		"bufferView":27,
		"type":"VEC3",
		"componentType":5126,
		"byteOffset":0,
		"min":[-15.706108093261719,
		-6.9945502281188969,
		-7.195732116699219],
		"max":[-12.503969192504883,
		-2.596698045730591,
		-3.8168389797210695]
	},
	{
		"count":151,
		"bufferView":27,
		"type":"VEC3",
		"componentType":5126,
		"byteOffset":12,
		"min":[-0.9871875643730164,
		-0.9970625638961792,
		-0.9953125715255737],
		"max":[0.9871875643730164,
		0.9970625638961792,
		0.9953125715255737]
	},
	{
		"count":151,
		"bufferView":27,
		"type":"VEC2",
		"componentType":5126,
		"byteOffset":24,
		"min":[0.0,
		0.0],
		"max":[1.0,
		1.0]
	},
	{
		"count":672,
		"bufferView":28,
		"type":"SCALAR",
		"componentType":5123,
		"byteOffset":0,
		"min":[0],
		"max":[150]
	},
	{
		"count":151,
		"bufferView":29,
		"type":"VEC3",
		"componentType":5126,
		"byteOffset":0,
		"min":[0.4080919921398163,
		-10.579292297363282,
		-9.35539436340332],
		"max":[3.2918701171875,
		-6.108581066131592,
		-5.816422939300537]
	},
	{
		"count":151,
		"bufferView":29,
		"type":"VEC3",
		"componentType":5126,
		"byteOffset":12,
		"min":[-0.9861875176429749,
		-0.9789062738418579,
		-0.9994375705718994],
		"max":[0.9861875176429749,
		0.9789062738418579,
		0.9994375705718994]
	},
	{
		"count":151,
		"bufferView":29,
		"type":"VEC2",
		"componentType":5126,
		"byteOffset":24,
		"min":[0.0,
		0.0],
		"max":[1.0,
		1.0]
	},
	{
		"count":45936,
		"bufferView":30,
		"type":"SCALAR",
		"componentType":5123,
		"byteOffset":0,
		"min":[0],
		"max":[7698]
	},
	{
		"count":7699,
		"bufferView":31,
		"type":"VEC3",
		"componentType":5126,
		"byteOffset":0,
		"min":[-34.04804611206055,
		-13.986014366149903,
		-28.162418365478517],
		"max":[11.445451736450196,
		43.82251739501953,
		17.565826416015626]
	},
	{
		"count":7699,
		"bufferView":31,
		"type":"VEC3",
		"componentType":5126,
		"byteOffset":12,
		"min":[-0.9999688267707825,
		-0.9997813105583191,
		-0.9999688267707825],
		"max":[0.9998750686645508,
		0.999093770980835,
		0.9998437762260437]
	},
	{
		"count":7699,
		"bufferView":31,
		"type":"VEC2",
		"componentType":5126,
		"byteOffset":24,
		"min":[9.99999883788405e-7,
		0.00023400000645779073],
		"max":[0.9999349117279053,
		0.9986469745635986]
	}],
	"bufferViews":[{
		"buffer":0,
		"byteOffset":0,
		"byteLength":1344,
		"target":34963
	},
	{
		"buffer":0,
		"byteOffset":1344,
		"byteLength":4832,
		"target":34962,
		"byteStride":32
	},
	{
		"buffer":1,
		"byteOffset":0,
		"byteLength":1344,
		"target":34963
	},
	{
		"buffer":1,
		"byteOffset":1344,
		"byteLength":4832,
		"target":34962,
		"byteStride":32
	},
	{
		"buffer":2,
		"byteOffset":0,
		"byteLength":1344,
		"target":34963
	},
	{
		"buffer":2,
		"byteOffset":1344,
		"byteLength":4832,
		"target":34962,
		"byteStride":32
	},
	{
		"buffer":3,
		"byteOffset":0,
		"byteLength":1344,
		"target":34963
	},
	{
		"buffer":3,
		"byteOffset":1344,
		"byteLength":4832,
		"target":34962,
		"byteStride":32
	},
	{
		"buffer":4,
		"byteOffset":0,
		"byteLength":1344,
		"target":34963
	},
	{
		"buffer":4,
		"byteOffset":1344,
		"byteLength":4832,
		"target":34962,
		"byteStride":32
	},
	{
		"buffer":5,
		"byteOffset":0,
		"byteLength":1344,
		"target":34963
	},
	{
		"buffer":5,
		"byteOffset":1344,
		"byteLength":4832,
		"target":34962,
		"byteStride":32
	},
	{
		"buffer":6,
		"byteOffset":0,
		"byteLength":1344,
		"target":34963
	},
	{
		"buffer":6,
		"byteOffset":1344,
		"byteLength":4832,
		"target":34962,
		"byteStride":32
	},
	{
		"buffer":7,
		"byteOffset":0,
		"byteLength":1344,
		"target":34963
	},
	{
		"buffer":7,
		"byteOffset":1344,
		"byteLength":4832,
		"target":34962,
		"byteStride":32
	},
	{
		"buffer":8,
		"byteOffset":0,
		"byteLength":1344,
		"target":34963
	},
	{
		"buffer":8,
		"byteOffset":1344,
		"byteLength":4832,
		"target":34962,
		"byteStride":32
	},
	{
		"buffer":9,
		"byteOffset":0,
		"byteLength":1344,
		"target":34963
	},
	{
		"buffer":9,
		"byteOffset":1344,
		"byteLength":4832,
		"target":34962,
		"byteStride":32
	},
	{
		"buffer":10,
		"byteOffset":0,
		"byteLength":1344,
		"target":34963
	},
	{
		"buffer":10,
		"byteOffset":1344,
		"byteLength":4832,
		"target":34962,
		"byteStride":32
	},
	{
		"buffer":11,
		"byteOffset":0,
		"byteLength":1344,
		"target":34963
	},
	{
		"buffer":11,
		"byteOffset":1344,
		"byteLength":4832,
		"target":34962,
		"byteStride":32
	},
	{
		"buffer":12,
		"byteOffset":0,
		"byteLength":1344,
		"target":34963
	},
	{
		"buffer":12,
		"byteOffset":1344,
		"byteLength":4832,
		"target":34962,
		"byteStride":32
	},
	{
		"buffer":13,
		"byteOffset":0,
		"byteLength":1344,
		"target":34963
	},
	{
		"buffer":13,
		"byteOffset":1344,
		"byteLength":4832,
		"target":34962,
		"byteStride":32
	},
	{
		"buffer":14,
		"byteOffset":0,
		"byteLength":1344,
		"target":34963
	},
	{
		"buffer":14,
		"byteOffset":1344,
		"byteLength":4832,
		"target":34962,
		"byteStride":32
	},
	{
		"buffer":15,
		"byteOffset":0,
		"byteLength":91872,
		"target":34963
	},
	{
		"buffer":15,
		"byteOffset":91872,
		"byteLength":246368,
		"target":34962,
		"byteStride":32
	}],
	"buffers":[{
		"uri":"data:application/octet-stream;base64,",
		"byteLength":6176
	},
	{
		"uri":"data:application/octet-stream;base64,",
		"byteLength":6176
	},
	{
		"uri":"data:application/octet-stream;base64,",
		"byteLength":6176
	},
	{
		"uri":"data:application/octet-stream;base64,",
		"byteLength":6176
	},
	{
		"uri":"data:application/octet-stream;base64,",
		"byteLength":6176
	},
	{
		"uri":"data:application/octet-stream;base64,",
		"byteLength":6176
	},
	{
		"uri":"data:application/octet-stream;base64,",
		"byteLength":6176
	},
	{
		"uri":"data:application/octet-stream;base64,",
		"byteLength":6176
	},
	{
		"uri":"data:application/octet-stream;base64,",
		"byteLength":6176
	},
	{
		"uri":"data:application/octet-stream;base64,",
		"byteLength":6176
	},
	{
		"uri":"data:application/octet-stream;base64,",
		"byteLength":6176
	},
	{
		"uri":"data:application/octet-stream;base64,",
		"byteLength":6176
	},
	{
		"uri":"data:application/octet-stream;base64,",
		"byteLength":6176
	},
	{
		"uri":"data:application/octet-stream;base64,",
		"byteLength":6176
	},
	{
		"uri":"data:application/octet-stream;base64,",
		"byteLength":6176
	},
	{
		"uri":"data:application/octet-stream;base64,",
		"byteLength":338240
	}],
	"materials":[{
		"emissiveFactor":[0.0,
		0.0,
		0.0],
		"pbrMetallicRoughness":{
			"baseColorFactor":[1.0,
			1.0,
			1.0,
			1.0],
			"metallicFactor":0.0,
			"roughnessFactor":0.5
		},
		"alphaMode":"OPAQUE",
		"doubleSided":false,
		"name":"default"
	}]
}