{
  "accessors": [
    {
      "bufferView": 0,
      "componentType": 5126,
      "count": 3002,
      "max": [
        83.34719848632813,
        50.63230514526367,
        39.8571891784668
      ],
      "min": [
        -34.74648666381836,
        2.6748392581939697,
        -66.86251068115234
      ],
      "name": "positions",
      "type": "VEC3"
    },
    {
      "bufferView": 1,
      "componentType": 5125,
      "count": 18000,
      "name": "pos_index",
      "type": "SCALAR"
    },
    {
      "bufferView": 2,
      "componentType": 5126,
      "count": 3002,
      "name": "normals",
      "type": "VEC3"
    },
    {
      "bufferView": 3,
      "componentType": 5126,
      "count": 3004,
      "max": [
        40.44794464111328,
        53.99701690673828,
        -36.86030197143555
      ],
      "min": [
        24.605058670043945,
        45.53407287597656,
        -45.322479248046875
      ],
      "name": "positions",
      "type": "VEC3"
    },
    {
      "bufferView": 4,
      "componentType": 5125,
      "count": 18000,
      "name": "pos_index",
      "type": "SCALAR"
    },
    {
      "bufferView": 5,
      "componentType": 5126,
      "count": 3004,
      "name": "normals",
      "type": "VEC3"
    }
  ],
  "asset": {
    "version": "2.0"
  },
  "bufferViews": [
    {
      "buffer": 0,
      "byteLength": 36024,
      "name": "positions",
      "target": 34962
    },
    {
      "buffer": 1,
      "byteLength": 72000,
      "name": "pos_index",
      "target": 34963
    },
    {
      "buffer": 2,
      "byteLength": 36024,
      "name": "normals",
      "target": 34962
    },
    {
      "buffer": 3,
      "byteLength": 36048,
      "name": "positions",
      "target": 34962
    },
    {
      "buffer": 4,
      "byteLength": 72000,
      "name": "pos_index",
      "target": 34963
    },
    {
      "buffer": 5,
      "byteLength": 36048,
      "name": "normals",
      "target": 34962
    }
  ],
  "buffers": [
    {
      "byteLength": 36024,
      "name": "positions",
      "uri": "data:application/octet-stream;base64,"
    },
    {
      "byteLength": 72000,
      "name": "pos_index",
      "uri": "data:application/octet-stream;base64,"
    },
    {
      "byteLength": 36024,
      "name": "normals",
      "uri": "data:application/octet-stream;base64,"
    },
    {
      "byteLength": 36048,
      "name": "positions",
      "uri": "data:application/octet-stream;base64,"
    },
    {
      "byteLength": 72000,
      "name": "pos_index",
      "uri": "data:application/octet-stream;base64,"
    },
    {
      "byteLength": 36048,
      "name": "normals",
      "uri": "data:application/octet-stream;base64,"
    }
  ],
  "extensionsUsed": [
    "KHR_materials_transmission"
  ],
  "meshes": [
    {
      "name": "Metal-Patrik-body",
      "primitives": [
        {
          "attributes": {
            "NORMAL": 2,
            "POSITION": 0
          },
          "indices": 1,
          "mode": 4
        }
      ]
    },
    {
      "name": "Blue-eyes",
      "primitives": [
        {
          "attributes": {
            "NORMAL": 5,
            "POSITION": 3
          },
          "indices": 4,
          "mode": 4
        }
      ]
    }
  ],
  "nodes": [
    {
      "mesh": 0,
      "name": "Metal-Patrik-body"
    },
    {
      "mesh": 1,
      "name": "Blue-eyes"
    }
  ],
  "scene": 0,
  "scenes": [
    {
      "nodes": [
        0,
        1
      ]
    }
  ]
}
