{
  "accessors": [
    {
      "bufferView": 0,
      "componentType": 5126,
      "count": 3004,
      "max": [
        100.33386993408203,
        122.98365783691406,
        -48.99369812011719
      ],
      "min": [
        -22.301414489746094,
        85.23751831054688,
        -62.27771759033203
      ],
      "name": "positions",
      "type": "VEC3"
    },
    {
      "bufferView": 1,
      "componentType": 5125,
      "count": 18000,
      "name": "pos_index",
      "type": "SCALAR"
    },
    {
      "bufferView": 2,
      "componentType": 5126,
      "count": 3004,
      "name": "normals",
      "type": "VEC3"
    },
    {
      "bufferView": 3,
      "componentType": 5126,
      "count": 3002,
      "max": [
        30.766836166381836,
        93.07865142822266,
        -79.94906616210938
      ],
      "min": [
        26.948898315429688,
        89.26122283935547,
        -83.76730346679688
      ],
      "name": "positions",
      "type": "VEC3"
    },
    {
      "bufferView": 4,
      "componentType": 5125,
      "count": 18000,
      "name": "pos_index",
      "type": "SCALAR"
    },
    {
      "bufferView": 5,
      "componentType": 5126,
      "count": 3002,
      "name": "normals",
      "type": "VEC3"
    },
    {
      "bufferView": 6,
      "componentType": 5126,
      "count": 3002,
      "max": [
        54.90025329589844,
        92.33419036865234,
        -79.99808502197266
      ],
      "min": [
        51.178985595703125,
        88.61236572265625,
        -83.71859741210938
      ],
      "name": "positions",
      "type": "VEC3"
    },
    {
      "bufferView": 7,
      "componentType": 5125,
      "count": 18000,
      "name": "pos_index",
      "type": "SCALAR"
    },
    {
      "bufferView": 8,
      "componentType": 5126,
      "count": 3002,
      "name": "normals",
      "type": "VEC3"
    },
    {
      "bufferView": 9,
      "componentType": 5126,
      "count": 3003,
      "max": [
        83.33405303955078,
        116.92047119140625,
        88.671875
      ],
      "min": [
        -131.0710906982422,
        2.3031234741210938,
        -104.7140121459961
      ],
      "name": "positions",
      "type": "VEC3"
    },
    {
      "bufferView": 10,
      "componentType": 5125,
      "count": 17994,
      "name": "pos_index",
      "type": "SCALAR"
    },
    {
      "bufferView": 11,
      "componentType": 5126,
      "count": 3003,
      "name": "normals",
      "type": "VEC3"
    }
  ],
  "asset": {
    "version": "2.0"
  },
  "bufferViews": [
    {
      "buffer": 0,
      "byteLength": 36048,
      "name": "positions",
      "target": 34962
    },
    {
      "buffer": 1,
      "byteLength": 72000,
      "name": "pos_index",
      "target": 34963
    },
    {
      "buffer": 2,
      "byteLength": 36048,
      "name": "normals",
      "target": 34962
    },
    {
      "buffer": 3,
      "byteLength": 36024,
      "name": "positions",
      "target": 34962
    },
    {
      "buffer": 4,
      "byteLength": 72000,
      "name": "pos_index",
      "target": 34963
    },
    {
      "buffer": 5,
      "byteLength": 36024,
      "name": "normals",
      "target": 34962
    },
    {
      "buffer": 6,
      "byteLength": 36024,
      "name": "positions",
      "target": 34962
    },
    {
      "buffer": 7,
      "byteLength": 72000,
      "name": "pos_index",
      "target": 34963
    },
    {
      "buffer": 8,
      "byteLength": 36024,
      "name": "normals",
      "target": 34962
    },
    {
      "buffer": 9,
      "byteLength": 36036,
      "name": "positions",
      "target": 34962
    },
    {
      "buffer": 10,
      "byteLength": 71976,
      "name": "pos_index",
      "target": 34963
    },
    {
      "buffer": 11,
      "byteLength": 36036,
      "name": "normals",
      "target": 34962
    }
  ],
  "buffers": [
    {
      "byteLength": 36048,
      "name": "positions",
      "uri": "data:application/octet-stream;base64,"
    },
    {
      "byteLength": 72000,
      "name": "pos_index",
      "uri": "data:application/octet-stream;base64,"
    },
    {
      "byteLength": 36048,
      "name": "normals",
      "uri": "data:application/octet-stream;base64,"
    },
    {
      "byteLength": 36024,
      "name": "positions",
      "uri": "data:application/octet-stream;base64,"
    },
    {
      "byteLength": 72000,
      "name": "pos_index",
      "uri": "data:application/octet-stream;base64,"
    },
    {
      "byteLength": 36024,
      "name": "normals",
      "uri": "data:application/octet-stream;base64,"
    },
    {
      "byteLength": 36024,
      "name": "positions",
      "uri": "data:application/octet-stream;base64,"
    },
    {
      "byteLength": 72000,
      "name": "pos_index",
      "uri": "data:application/octet-stream;base64,"
    },
    {
      "byteLength": 36024,
      "name": "normals",
      "uri": "data:application/octet-stream;base64,"
    },
    {
      "byteLength": 36036,
      "name": "positions",
      "uri": "data:application/octet-stream;base64,"
    },
    {
      "byteLength": 71976,
      "name": "pos_index",
      "uri": "data:application/octet-stream;base64,"
    },
    {
      "byteLength": 36036,
      "name": "normals",
      "uri": "data:application/octet-stream;base64,"
    }
  ],
  "extensionsUsed": [
    "KHR_materials_transmission"
  ],
  "meshes": [
    {
      "name": "Blue-aquapook-ears",
      "primitives": [
        {
          "attributes": {
            "NORMAL": 2,
            "POSITION": 0
          },
          "indices": 1,
          "mode": 4
        }
      ]
    },
    {
      "name": "Area (5)",
      "primitives": [
        {
          "attributes": {
            "NORMAL": 5,
            "POSITION": 3
          },
          "indices": 4,
          "mode": 4
        }
      ]
    },
    {
      "name": "Area (6)",
      "primitives": [
        {
          "attributes": {
            "NORMAL": 8,
            "POSITION": 6
          },
          "indices": 7,
          "mode": 4
        }
      ]
    },
    {
      "name": "Blue-aquapook-body",
      "primitives": [
        {
          "attributes": {
            "NORMAL": 11,
            "POSITION": 9
          },
          "indices": 10,
          "mode": 4
        }
      ]
    }
  ],
  "nodes": [
    {
      "mesh": 0,
      "name": "Blue-aquapook-ears"
    },
    {
      "mesh": 1,
      "name": "Area (5)"
    },
    {
      "mesh": 2,
      "name": "Area (6)"
    },
    {
      "mesh": 3,
      "name": "Blue-aquapook-body"
    }
  ],
  "scene": 0,
  "scenes": [
    {
      "nodes": [
        0,
        1,
        2,
        3
      ]
    }
  ]
}
