{
	"asset":{
		"version":"2.0",
		"generator":"Created using the official Cinema 4D glTF Exporter 1.000x284978"
	},
	"scenes":[{
		"nodes":[0,
		3]
	}],
	"nodes":[{
		"name":"Metal-ovals",
		"children":[1,
		2]
	},
	{
		"name":"Ovals",
		"mesh":0
	},
	{
		"name":"Oval",
		"mesh":1
	},
	{
		"name":"Blue-spheres",
		"children":[4,
		5,
		6,
		7,
		8]
	},
	{
		"name":"Sphere-4",
		"mesh":2
	},
	{
		"name":"Sphere-3",
		"mesh":3
	},
	{
		"name":"Sphere-2",
		"mesh":4
	},
	{
		"name":"Sphere-1",
		"mesh":5
	},
	{
		"name":"Sphere",
		"mesh":6
	}],
	"meshes":[{
		"name":"Ovals",
		"primitives":[{
			"attributes":{
				"POSITION":1,
				"NORMAL":2,
				"TEXCOORD_0":3
			},
			"indices":0,
			"material":0
		}]
	},
	{
		"name":"Oval",
		"primitives":[{
			"attributes":{
				"POSITION":5,
				"NORMAL":6,
				"TEXCOORD_0":7
			},
			"indices":4,
			"material":0
		}]
	},
	{
		"name":"Sphere-4",
		"primitives":[{
			"attributes":{
				"POSITION":9,
				"NORMAL":10,
				"TEXCOORD_0":11
			},
			"indices":8,
			"material":0
		}]
	},
	{
		"name":"Sphere-3",
		"primitives":[{
			"attributes":{
				"POSITION":13,
				"NORMAL":14,
				"TEXCOORD_0":15
			},
			"indices":12,
			"material":0
		}]
	},
	{
		"name":"Sphere-2",
		"primitives":[{
			"attributes":{
				"POSITION":17,
				"NORMAL":18,
				"TEXCOORD_0":19
			},
			"indices":16,
			"material":0
		}]
	},
	{
		"name":"Sphere-1",
		"primitives":[{
			"attributes":{
				"POSITION":21,
				"NORMAL":22,
				"TEXCOORD_0":23
			},
			"indices":20,
			"material":0
		}]
	},
	{
		"name":"Sphere",
		"primitives":[{
			"attributes":{
				"POSITION":25,
				"NORMAL":26,
				"TEXCOORD_0":27
			},
			"indices":24,
			"material":0
		}]
	}],
	"accessors":[{
		"count":29376,
		"bufferView":0,
		"type":"SCALAR",
		"componentType":5123,
		"byteOffset":0,
		"min":[0],
		"max":[5105]
	},
	{
		"count":5106,
		"bufferView":1,
		"type":"VEC3",
		"componentType":5126,
		"byteOffset":0,
		"min":[-152.1929168701172,
		-124.44255065917969,
		-179.92257690429688],
		"max":[152.1929168701172,
		124.44255065917969,
		179.92257690429688]
	},
	{
		"count":5106,
		"bufferView":1,
		"type":"VEC3",
		"componentType":5126,
		"byteOffset":12,
		"min":[-0.9981563091278076,
		-0.998343825340271,
		-0.9959688186645508],
		"max":[0.9981563091278076,
		0.998343825340271,
		0.9959688186645508]
	},
	{
		"count":5106,
		"bufferView":1,
		"type":"VEC2",
		"componentType":5126,
		"byteOffset":24,
		"min":[0.0,
		0.0],
		"max":[1.0,
		1.0]
	},
	{
		"count":14688,
		"bufferView":2,
		"type":"SCALAR",
		"componentType":5123,
		"byteOffset":0,
		"min":[0],
		"max":[2552]
	},
	{
		"count":2553,
		"bufferView":3,
		"type":"VEC3",
		"componentType":5126,
		"byteOffset":0,
		"min":[-201.5030517578125,
		-19.527250289916993,
		-160.66159057617188],
		"max":[201.5030517578125,
		19.527250289916993,
		160.66159057617188]
	},
	{
		"count":2553,
		"bufferView":3,
		"type":"VEC3",
		"componentType":5126,
		"byteOffset":12,
		"min":[-1.0,
		-0.9981250762939453,
		-0.9981250762939453],
		"max":[1.0,
		0.9981250762939453,
		0.9981250762939453]
	},
	{
		"count":2553,
		"bufferView":3,
		"type":"VEC2",
		"componentType":5126,
		"byteOffset":24,
		"min":[0.0,
		0.0],
		"max":[1.0,
		1.0]
	},
	{
		"count":1344,
		"bufferView":4,
		"type":"SCALAR",
		"componentType":5123,
		"byteOffset":0,
		"min":[0],
		"max":[301]
	},
	{
		"count":302,
		"bufferView":5,
		"type":"VEC3",
		"componentType":5126,
		"byteOffset":0,
		"min":[-120.46946716308594,
		-136.02972412109376,
		122.98539733886719],
		"max":[120.46946716308594,
		-94.44124603271485,
		164.5860137939453]
	},
	{
		"count":302,
		"bufferView":5,
		"type":"VEC3",
		"componentType":5126,
		"byteOffset":12,
		"min":[-0.9752500653266907,
		-0.9907500743865967,
		-0.9908750653266907],
		"max":[0.9752500653266907,
		0.9907500743865967,
		0.9908750653266907]
	},
	{
		"count":302,
		"bufferView":5,
		"type":"VEC2",
		"componentType":5126,
		"byteOffset":24,
		"min":[0.0,
		0.0],
		"max":[1.0,
		1.0]
	},
	{
		"count":1344,
		"bufferView":6,
		"type":"SCALAR",
		"componentType":5123,
		"byteOffset":0,
		"min":[0],
		"max":[301]
	},
	{
		"count":302,
		"bufferView":7,
		"type":"VEC3",
		"componentType":5126,
		"byteOffset":0,
		"min":[-120.52796173095703,
		94.5223617553711,
		-164.49656677246095],
		"max":[120.52796173095703,
		135.94854736328126,
		-123.07498168945313]
	},
	{
		"count":302,
		"bufferView":7,
		"type":"VEC3",
		"componentType":5126,
		"byteOffset":12,
		"min":[-0.9780625700950623,
		-0.986875057220459,
		-0.986625075340271],
		"max":[0.9780625700950623,
		0.986875057220459,
		0.986625075340271]
	},
	{
		"count":302,
		"bufferView":7,
		"type":"VEC2",
		"componentType":5126,
		"byteOffset":24,
		"min":[0.0,
		0.0],
		"max":[1.0,
		1.0]
	},
	{
		"count":672,
		"bufferView":8,
		"type":"SCALAR",
		"componentType":5123,
		"byteOffset":0,
		"min":[0],
		"max":[150]
	},
	{
		"count":151,
		"bufferView":9,
		"type":"VEC3",
		"componentType":5126,
		"byteOffset":0,
		"min":[-220.94741821289063,
		-20.856582641601564,
		-20.81430435180664],
		"max":[-179.05258178710938,
		20.856582641601564,
		20.81430435180664]
	},
	{
		"count":151,
		"bufferView":9,
		"type":"VEC3",
		"componentType":5126,
		"byteOffset":12,
		"min":[-0.9979375600814819,
		-0.9935938119888306,
		-0.9916250705718994],
		"max":[0.9979375600814819,
		0.9935938119888306,
		0.9916250705718994]
	},
	{
		"count":151,
		"bufferView":9,
		"type":"VEC2",
		"componentType":5126,
		"byteOffset":24,
		"min":[0.0,
		0.0],
		"max":[1.0,
		1.0]
	},
	{
		"count":672,
		"bufferView":10,
		"type":"SCALAR",
		"componentType":5123,
		"byteOffset":0,
		"min":[0],
		"max":[150]
	},
	{
		"count":151,
		"bufferView":11,
		"type":"VEC3",
		"componentType":5126,
		"byteOffset":0,
		"min":[179.0525665283203,
		-20.85659408569336,
		-20.814193725585939],
		"max":[220.94741821289063,
		20.856569290161134,
		20.81441879272461]
	},
	{
		"count":151,
		"bufferView":11,
		"type":"VEC3",
		"componentType":5126,
		"byteOffset":12,
		"min":[-0.9979375600814819,
		-0.9935938119888306,
		-0.9916250705718994],
		"max":[0.9979375600814819,
		0.9935938119888306,
		0.9916250705718994]
	},
	{
		"count":151,
		"bufferView":11,
		"type":"VEC2",
		"componentType":5126,
		"byteOffset":24,
		"min":[0.0,
		0.0],
		"max":[1.0,
		1.0]
	},
	{
		"count":2880,
		"bufferView":12,
		"type":"SCALAR",
		"componentType":5123,
		"byteOffset":0,
		"min":[0],
		"max":[558]
	},
	{
		"count":559,
		"bufferView":13,
		"type":"VEC3",
		"componentType":5126,
		"byteOffset":0,
		"min":[-100.0,
		-100.0,
		-100.0],
		"max":[100.0,
		100.0,
		100.0]
	},
	{
		"count":559,
		"bufferView":13,
		"type":"VEC3",
		"componentType":5126,
		"byteOffset":12,
		"min":[-1.0,
		-1.0,
		-1.0],
		"max":[1.0,
		1.0,
		1.0]
	},
	{
		"count":559,
		"bufferView":13,
		"type":"VEC2",
		"componentType":5126,
		"byteOffset":24,
		"min":[0.0,
		0.0],
		"max":[1.0,
		1.0]
	}],
	"bufferViews":[{
		"buffer":0,
		"byteOffset":0,
		"byteLength":58752,
		"target":34963
	},
	{
		"buffer":0,
		"byteOffset":58752,
		"byteLength":163392,
		"target":34962,
		"byteStride":32
	},
	{
		"buffer":1,
		"byteOffset":0,
		"byteLength":29376,
		"target":34963
	},
	{
		"buffer":1,
		"byteOffset":29376,
		"byteLength":81696,
		"target":34962,
		"byteStride":32
	},
	{
		"buffer":2,
		"byteOffset":0,
		"byteLength":2688,
		"target":34963
	},
	{
		"buffer":2,
		"byteOffset":2688,
		"byteLength":9664,
		"target":34962,
		"byteStride":32
	},
	{
		"buffer":3,
		"byteOffset":0,
		"byteLength":2688,
		"target":34963
	},
	{
		"buffer":3,
		"byteOffset":2688,
		"byteLength":9664,
		"target":34962,
		"byteStride":32
	},
	{
		"buffer":4,
		"byteOffset":0,
		"byteLength":1344,
		"target":34963
	},
	{
		"buffer":4,
		"byteOffset":1344,
		"byteLength":4832,
		"target":34962,
		"byteStride":32
	},
	{
		"buffer":5,
		"byteOffset":0,
		"byteLength":1344,
		"target":34963
	},
	{
		"buffer":5,
		"byteOffset":1344,
		"byteLength":4832,
		"target":34962,
		"byteStride":32
	},
	{
		"buffer":6,
		"byteOffset":0,
		"byteLength":5760,
		"target":34963
	},
	{
		"buffer":6,
		"byteOffset":5760,
		"byteLength":17888,
		"target":34962,
		"byteStride":32
	}],
	"buffers":[{
		"uri":"data:application/octet-stream;base64,",
		"byteLength":222144
	},
	{
		"uri":"data:application/octet-stream;base64,",
		"byteLength":111072
	},
	{
		"uri":"data:application/octet-stream;base64,",
		"byteLength":12352
	},
	{
		"uri":"data:application/octet-stream;base64,",
		"byteLength":12352
	},
	{
		"uri":"data:application/octet-stream;base64,",
		"byteLength":6176
	},
	{
		"uri":"data:application/octet-stream;base64,",
		"byteLength":6176
	},
	{
		"uri":"data:application/octet-stream;base64,",
		"byteLength":23648
	}],
	"materials":[{
		"emissiveFactor":[0.0,
		0.0,
		0.0],
		"pbrMetallicRoughness":{
			"baseColorFactor":[1.0,
			1.0,
			1.0,
			1.0],
			"metallicFactor":1.0,
			"roughnessFactor":0.5
		},
		"alphaMode":"OPAQUE",
		"doubleSided":false,
		"name":"default"
	}]
}