{
	"asset":{
		"version":"2.0",
		"generator":"Created using the official Cinema 4D glTF Exporter 1.000x284978"
	},
	"scenes":[{
		"nodes":[0,
		12,
		21]
	}],
	"nodes":[{
		"name":"Blue-flower",
		"children":[1,
		2,
		3,
		4,
		5,
		6,
		7,
		8,
		9,
		10,
		11]
	},
	{
		"name":"Sphere-11",
		"mesh":0
	},
	{
		"name":"Sphere-10",
		"mesh":1
	},
	{
		"name":"Sphere-9",
		"mesh":2
	},
	{
		"name":"Sphere-8",
		"mesh":3
	},
	{
		"name":"Sphere-7",
		"mesh":4
	},
	{
		"name":"Sphere-6",
		"mesh":5
	},
	{
		"name":"Sphere-5",
		"mesh":6
	},
	{
		"name":"Sphere-4",
		"mesh":7
	},
	{
		"name":"Sphere-3",
		"mesh":8
	},
	{
		"name":"Sphere-2",
		"mesh":9
	},
	{
		"name":"Sphere-1",
		"mesh":10
	},
	{
		"name":"Blue-porthole",
		"children":[13,
		14,
		15,
		16,
		17,
		18,
		19,
		20]
	},
	{
		"name":"Porthole-8",
		"mesh":11
	},
	{
		"name":"Porthole-7",
		"mesh":12
	},
	{
		"name":"Porthole-6",
		"mesh":13
	},
	{
		"name":"Porthole-5",
		"mesh":14
	},
	{
		"name":"Porthole-4",
		"mesh":15
	},
	{
		"name":"Porthole-3",
		"mesh":16
	},
	{
		"name":"Porthole-2",
		"mesh":17
	},
	{
		"name":"Porthole-1",
		"mesh":18
	},
	{
		"name":"Metal-ufo",
		"children":[22]
	},
	{
		"name":"Sphere",
		"mesh":19
	}],
	"meshes":[{
		"name":"Sphere-11",
		"primitives":[{
			"attributes":{
				"POSITION":1,
				"NORMAL":2,
				"TEXCOORD_0":3
			},
			"indices":0,
			"material":0
		}]
	},
	{
		"name":"Sphere-10",
		"primitives":[{
			"attributes":{
				"POSITION":5,
				"NORMAL":6,
				"TEXCOORD_0":7
			},
			"indices":4,
			"material":0
		}]
	},
	{
		"name":"Sphere-9",
		"primitives":[{
			"attributes":{
				"POSITION":9,
				"NORMAL":10,
				"TEXCOORD_0":11
			},
			"indices":8,
			"material":0
		}]
	},
	{
		"name":"Sphere-8",
		"primitives":[{
			"attributes":{
				"POSITION":13,
				"NORMAL":14,
				"TEXCOORD_0":15
			},
			"indices":12,
			"material":0
		}]
	},
	{
		"name":"Sphere-7",
		"primitives":[{
			"attributes":{
				"POSITION":17,
				"NORMAL":18,
				"TEXCOORD_0":19
			},
			"indices":16,
			"material":0
		}]
	},
	{
		"name":"Sphere-6",
		"primitives":[{
			"attributes":{
				"POSITION":21,
				"NORMAL":22,
				"TEXCOORD_0":23
			},
			"indices":20,
			"material":0
		}]
	},
	{
		"name":"Sphere-5",
		"primitives":[{
			"attributes":{
				"POSITION":25,
				"NORMAL":26,
				"TEXCOORD_0":27
			},
			"indices":24,
			"material":0
		}]
	},
	{
		"name":"Sphere-4",
		"primitives":[{
			"attributes":{
				"POSITION":29,
				"NORMAL":30,
				"TEXCOORD_0":31
			},
			"indices":28,
			"material":0
		}]
	},
	{
		"name":"Sphere-3",
		"primitives":[{
			"attributes":{
				"POSITION":33,
				"NORMAL":34,
				"TEXCOORD_0":35
			},
			"indices":32,
			"material":0
		}]
	},
	{
		"name":"Sphere-2",
		"primitives":[{
			"attributes":{
				"POSITION":37,
				"NORMAL":38,
				"TEXCOORD_0":39
			},
			"indices":36,
			"material":0
		}]
	},
	{
		"name":"Sphere-1",
		"primitives":[{
			"attributes":{
				"POSITION":41,
				"NORMAL":42,
				"TEXCOORD_0":43
			},
			"indices":40,
			"material":0
		}]
	},
	{
		"name":"Porthole-8",
		"primitives":[{
			"attributes":{
				"POSITION":45,
				"NORMAL":46,
				"TEXCOORD_0":47
			},
			"indices":44,
			"material":0
		}]
	},
	{
		"name":"Porthole-7",
		"primitives":[{
			"attributes":{
				"POSITION":49,
				"NORMAL":50,
				"TEXCOORD_0":51
			},
			"indices":48,
			"material":0
		}]
	},
	{
		"name":"Porthole-6",
		"primitives":[{
			"attributes":{
				"POSITION":53,
				"NORMAL":54,
				"TEXCOORD_0":55
			},
			"indices":52,
			"material":0
		}]
	},
	{
		"name":"Porthole-5",
		"primitives":[{
			"attributes":{
				"POSITION":57,
				"NORMAL":58,
				"TEXCOORD_0":59
			},
			"indices":56,
			"material":0
		}]
	},
	{
		"name":"Porthole-4",
		"primitives":[{
			"attributes":{
				"POSITION":61,
				"NORMAL":62,
				"TEXCOORD_0":63
			},
			"indices":60,
			"material":0
		}]
	},
	{
		"name":"Porthole-3",
		"primitives":[{
			"attributes":{
				"POSITION":65,
				"NORMAL":66,
				"TEXCOORD_0":67
			},
			"indices":64,
			"material":0
		}]
	},
	{
		"name":"Porthole-2",
		"primitives":[{
			"attributes":{
				"POSITION":69,
				"NORMAL":70,
				"TEXCOORD_0":71
			},
			"indices":68,
			"material":0
		}]
	},
	{
		"name":"Porthole-1",
		"primitives":[{
			"attributes":{
				"POSITION":73,
				"NORMAL":74,
				"TEXCOORD_0":75
			},
			"indices":72,
			"material":0
		}]
	},
	{
		"name":"Sphere",
		"primitives":[{
			"attributes":{
				"POSITION":77,
				"NORMAL":78,
				"TEXCOORD_0":79
			},
			"indices":76,
			"material":0
		}]
	}],
	"accessors":[{
		"count":672,
		"bufferView":0,
		"type":"SCALAR",
		"componentType":5123,
		"byteOffset":0,
		"min":[0],
		"max":[150]
	},
	{
		"count":151,
		"bufferView":1,
		"type":"VEC3",
		"componentType":5126,
		"byteOffset":0,
		"min":[14.680831909179688,
		60.279693603515628,
		-16.191232681274415],
		"max":[46.141666412353519,
		87.08401489257813,
		16.191232681274415]
	},
	{
		"count":151,
		"bufferView":1,
		"type":"VEC3",
		"componentType":5126,
		"byteOffset":12,
		"min":[-0.9883750677108765,
		-0.999000072479248,
		-0.9940313100814819],
		"max":[0.9883750677108765,
		0.999000072479248,
		0.9940313100814819]
	},
	{
		"count":151,
		"bufferView":1,
		"type":"VEC2",
		"componentType":5126,
		"byteOffset":24,
		"min":[0.0,
		0.0],
		"max":[1.0,
		1.0]
	},
	{
		"count":672,
		"bufferView":2,
		"type":"SCALAR",
		"componentType":5123,
		"byteOffset":0,
		"min":[0],
		"max":[150]
	},
	{
		"count":151,
		"bufferView":3,
		"type":"VEC3",
		"componentType":5126,
		"byteOffset":0,
		"min":[8.00916862487793,
		60.279693603515628,
		0.2415349930524826],
		"max":[39.65168380737305,
		87.08401489257813,
		31.744802474975587]
	},
	{
		"count":151,
		"bufferView":3,
		"type":"VEC3",
		"componentType":5126,
		"byteOffset":12,
		"min":[-0.979437530040741,
		-0.999000072479248,
		-0.9692813158035278],
		"max":[0.979437530040741,
		0.999000072479248,
		0.9692813158035278]
	},
	{
		"count":151,
		"bufferView":3,
		"type":"VEC2",
		"componentType":5126,
		"byteOffset":24,
		"min":[0.0,
		0.0],
		"max":[1.0,
		1.0]
	},
	{
		"count":672,
		"bufferView":4,
		"type":"SCALAR",
		"componentType":5123,
		"byteOffset":0,
		"min":[0],
		"max":[150]
	},
	{
		"count":151,
		"bufferView":5,
		"type":"VEC3",
		"componentType":5126,
		"byteOffset":0,
		"min":[-7.168214797973633,
		60.279693603515628,
		9.186366081237793],
		"max":[24.70677947998047,
		87.08401489257813,
		40.438480377197269]
	},
	{
		"count":151,
		"bufferView":5,
		"type":"VEC3",
		"componentType":5126,
		"byteOffset":12,
		"min":[-0.9784687757492065,
		-0.999000072479248,
		-0.9813125729560852],
		"max":[0.9784687757492065,
		0.999000072479248,
		0.9813125729560852]
	},
	{
		"count":151,
		"bufferView":5,
		"type":"VEC2",
		"componentType":5126,
		"byteOffset":24,
		"min":[0.0,
		0.0],
		"max":[1.0,
		1.0]
	},
	{
		"count":672,
		"bufferView":6,
		"type":"SCALAR",
		"componentType":5123,
		"byteOffset":0,
		"min":[0],
		"max":[150]
	},
	{
		"count":151,
		"bufferView":7,
		"type":"VEC3",
		"componentType":5126,
		"byteOffset":0,
		"min":[-24.70669174194336,
		60.279693603515628,
		9.186384201049805],
		"max":[7.168302059173584,
		87.08401489257813,
		40.43849563598633]
	},
	{
		"count":151,
		"bufferView":7,
		"type":"VEC3",
		"componentType":5126,
		"byteOffset":12,
		"min":[-0.9784687757492065,
		-0.999000072479248,
		-0.9813125729560852],
		"max":[0.9784687757492065,
		0.999000072479248,
		0.9813125729560852]
	},
	{
		"count":151,
		"bufferView":7,
		"type":"VEC2",
		"componentType":5126,
		"byteOffset":24,
		"min":[0.0,
		0.0],
		"max":[1.0,
		1.0]
	},
	{
		"count":672,
		"bufferView":8,
		"type":"SCALAR",
		"componentType":5123,
		"byteOffset":0,
		"min":[0],
		"max":[150]
	},
	{
		"count":151,
		"bufferView":9,
		"type":"VEC3",
		"componentType":5126,
		"byteOffset":0,
		"min":[-39.65162658691406,
		60.279693603515628,
		0.24160100519657136],
		"max":[-8.009110450744629,
		87.08401489257813,
		31.744869232177736]
	},
	{
		"count":151,
		"bufferView":9,
		"type":"VEC3",
		"componentType":5126,
		"byteOffset":12,
		"min":[-0.979437530040741,
		-0.999000072479248,
		-0.9692813158035278],
		"max":[0.979437530040741,
		0.999000072479248,
		0.9692813158035278]
	},
	{
		"count":151,
		"bufferView":9,
		"type":"VEC2",
		"componentType":5126,
		"byteOffset":24,
		"min":[0.0,
		0.0],
		"max":[1.0,
		1.0]
	},
	{
		"count":672,
		"bufferView":10,
		"type":"SCALAR",
		"componentType":5123,
		"byteOffset":0,
		"min":[0],
		"max":[150]
	},
	{
		"count":151,
		"bufferView":11,
		"type":"VEC3",
		"componentType":5126,
		"byteOffset":0,
		"min":[-46.141658782958987,
		60.279693603515628,
		-16.191144943237306],
		"max":[-14.680822372436524,
		87.08401489257813,
		16.191320419311525]
	},
	{
		"count":151,
		"bufferView":11,
		"type":"VEC3",
		"componentType":5126,
		"byteOffset":12,
		"min":[-0.9883750677108765,
		-0.999000072479248,
		-0.9940313100814819],
		"max":[0.9883750677108765,
		0.999000072479248,
		0.9940313100814819]
	},
	{
		"count":151,
		"bufferView":11,
		"type":"VEC2",
		"componentType":5126,
		"byteOffset":24,
		"min":[0.0,
		0.0],
		"max":[1.0,
		1.0]
	},
	{
		"count":672,
		"bufferView":12,
		"type":"SCALAR",
		"componentType":5123,
		"byteOffset":0,
		"min":[0],
		"max":[150]
	},
	{
		"count":151,
		"bufferView":13,
		"type":"VEC3",
		"componentType":5126,
		"byteOffset":0,
		"min":[-39.6517448425293,
		60.279693603515628,
		-31.744735717773439],
		"max":[-8.00922679901123,
		87.08401489257813,
		-0.24146899580955506]
	},
	{
		"count":151,
		"bufferView":13,
		"type":"VEC3",
		"componentType":5126,
		"byteOffset":12,
		"min":[-0.979437530040741,
		-0.999000072479248,
		-0.9692813158035278],
		"max":[0.979437530040741,
		0.999000072479248,
		0.9692813158035278]
	},
	{
		"count":151,
		"bufferView":13,
		"type":"VEC2",
		"componentType":5126,
		"byteOffset":24,
		"min":[0.0,
		0.0],
		"max":[1.0,
		1.0]
	},
	{
		"count":672,
		"bufferView":14,
		"type":"SCALAR",
		"componentType":5123,
		"byteOffset":0,
		"min":[0],
		"max":[150]
	},
	{
		"count":151,
		"bufferView":15,
		"type":"VEC3",
		"componentType":5126,
		"byteOffset":0,
		"min":[-24.706865310668947,
		60.279693603515628,
		-40.43846130371094],
		"max":[7.16812801361084,
		87.08401489257813,
		-9.186347007751465]
	},
	{
		"count":151,
		"bufferView":15,
		"type":"VEC3",
		"componentType":5126,
		"byteOffset":12,
		"min":[-0.9784687757492065,
		-0.999000072479248,
		-0.9813125729560852],
		"max":[0.9784687757492065,
		0.999000072479248,
		0.9813125729560852]
	},
	{
		"count":151,
		"bufferView":15,
		"type":"VEC2",
		"componentType":5126,
		"byteOffset":24,
		"min":[0.0,
		0.0],
		"max":[1.0,
		1.0]
	},
	{
		"count":672,
		"bufferView":16,
		"type":"SCALAR",
		"componentType":5123,
		"byteOffset":0,
		"min":[0],
		"max":[150]
	},
	{
		"count":151,
		"bufferView":17,
		"type":"VEC3",
		"componentType":5126,
		"byteOffset":0,
		"min":[-7.1683878898620609,
		60.279693603515628,
		-40.438514709472659],
		"max":[24.706605911254884,
		87.08401489257813,
		-9.186402320861817]
	},
	{
		"count":151,
		"bufferView":17,
		"type":"VEC3",
		"componentType":5126,
		"byteOffset":12,
		"min":[-0.9784687757492065,
		-0.999000072479248,
		-0.9813125729560852],
		"max":[0.9784687757492065,
		0.999000072479248,
		0.9813125729560852]
	},
	{
		"count":151,
		"bufferView":17,
		"type":"VEC2",
		"componentType":5126,
		"byteOffset":24,
		"min":[0.0,
		0.0],
		"max":[1.0,
		1.0]
	},
	{
		"count":672,
		"bufferView":18,
		"type":"SCALAR",
		"componentType":5123,
		"byteOffset":0,
		"min":[0],
		"max":[150]
	},
	{
		"count":151,
		"bufferView":19,
		"type":"VEC3",
		"componentType":5126,
		"byteOffset":0,
		"min":[8.009051322937012,
		60.279693603515628,
		-31.74493408203125],
		"max":[39.65156555175781,
		87.08401489257813,
		-0.2416680008172989]
	},
	{
		"count":151,
		"bufferView":19,
		"type":"VEC3",
		"componentType":5126,
		"byteOffset":12,
		"min":[-0.979437530040741,
		-0.999000072479248,
		-0.9692813158035278],
		"max":[0.979437530040741,
		0.999000072479248,
		0.9692813158035278]
	},
	{
		"count":151,
		"bufferView":19,
		"type":"VEC2",
		"componentType":5126,
		"byteOffset":24,
		"min":[0.0,
		0.0],
		"max":[1.0,
		1.0]
	},
	{
		"count":672,
		"bufferView":20,
		"type":"SCALAR",
		"componentType":5123,
		"byteOffset":0,
		"min":[0],
		"max":[150]
	},
	{
		"count":151,
		"bufferView":21,
		"type":"VEC3",
		"componentType":5126,
		"byteOffset":0,
		"min":[-16.288175582885743,
		65.8409652709961,
		-16.288175582885743],
		"max":[16.288175582885743,
		98.41732025146485,
		16.288175582885743]
	},
	{
		"count":151,
		"bufferView":21,
		"type":"VEC3",
		"componentType":5126,
		"byteOffset":12,
		"min":[-1.0,
		-1.0,
		-1.0],
		"max":[1.0,
		1.0,
		1.0]
	},
	{
		"count":151,
		"bufferView":21,
		"type":"VEC2",
		"componentType":5126,
		"byteOffset":24,
		"min":[0.0,
		0.0],
		"max":[1.0,
		1.0]
	},
	{
		"count":672,
		"bufferView":22,
		"type":"SCALAR",
		"componentType":5123,
		"byteOffset":0,
		"min":[0],
		"max":[150]
	},
	{
		"count":151,
		"bufferView":23,
		"type":"VEC3",
		"componentType":5126,
		"byteOffset":0,
		"min":[83.57661437988281,
		-16.515867233276368,
		-21.000362396240236],
		"max":[107.3730239868164,
		16.515867233276368,
		21.000362396240236]
	},
	{
		"count":151,
		"bufferView":23,
		"type":"VEC3",
		"componentType":5126,
		"byteOffset":12,
		"min":[-0.9941563010215759,
		-1.0,
		-0.9941563010215759],
		"max":[0.9941563010215759,
		1.0,
		0.9941563010215759]
	},
	{
		"count":151,
		"bufferView":23,
		"type":"VEC2",
		"componentType":5126,
		"byteOffset":24,
		"min":[0.0,
		0.0],
		"max":[1.0,
		1.0]
	},
	{
		"count":672,
		"bufferView":24,
		"type":"SCALAR",
		"componentType":5123,
		"byteOffset":0,
		"min":[0],
		"max":[150]
	},
	{
		"count":151,
		"bufferView":25,
		"type":"VEC3",
		"componentType":5126,
		"byteOffset":0,
		"min":[46.677005767822269,
		-16.515867233276368,
		-75.92906951904297],
		"max":[82.88098907470703,
		16.515867233276368,
		-44.054969787597659]
	},
	{
		"count":151,
		"bufferView":25,
		"type":"VEC3",
		"componentType":5126,
		"byteOffset":12,
		"min":[-0.9974687695503235,
		-1.0,
		-0.9898750185966492],
		"max":[0.9974687695503235,
		1.0,
		0.9898750185966492]
	},
	{
		"count":151,
		"bufferView":25,
		"type":"VEC2",
		"componentType":5126,
		"byteOffset":24,
		"min":[0.0,
		0.0],
		"max":[1.0,
		1.0]
	},
	{
		"count":672,
		"bufferView":26,
		"type":"SCALAR",
		"componentType":5123,
		"byteOffset":0,
		"min":[0],
		"max":[150]
	},
	{
		"count":151,
		"bufferView":27,
		"type":"VEC3",
		"componentType":5126,
		"byteOffset":0,
		"min":[-21.072803497314454,
		-16.515867233276368,
		-94.09111022949219],
		"max":[21.073026657104493,
		16.515867233276368,
		-70.21248626708985]
	},
	{
		"count":151,
		"bufferView":27,
		"type":"VEC3",
		"componentType":5126,
		"byteOffset":12,
		"min":[-0.9975938200950623,
		-1.0,
		-0.9975938200950623],
		"max":[0.9975938200950623,
		1.0,
		0.9975938200950623]
	},
	{
		"count":151,
		"bufferView":27,
		"type":"VEC2",
		"componentType":5126,
		"byteOffset":24,
		"min":[0.0,
		0.0],
		"max":[1.0,
		1.0]
	},
	{
		"count":672,
		"bufferView":28,
		"type":"SCALAR",
		"componentType":5123,
		"byteOffset":0,
		"min":[0],
		"max":[150]
	},
	{
		"count":151,
		"bufferView":29,
		"type":"VEC3",
		"componentType":5126,
		"byteOffset":0,
		"min":[-82.88081359863281,
		-16.515867233276368,
		-75.92920684814453],
		"max":[-46.67683029174805,
		16.515867233276368,
		-44.05510711669922]
	},
	{
		"count":151,
		"bufferView":29,
		"type":"VEC3",
		"componentType":5126,
		"byteOffset":12,
		"min":[-0.9974687695503235,
		-1.0,
		-0.9898750185966492],
		"max":[0.9974687695503235,
		1.0,
		0.9898750185966492]
	},
	{
		"count":151,
		"bufferView":29,
		"type":"VEC2",
		"componentType":5126,
		"byteOffset":24,
		"min":[0.0,
		0.0],
		"max":[1.0,
		1.0]
	},
	{
		"count":672,
		"bufferView":30,
		"type":"SCALAR",
		"componentType":5123,
		"byteOffset":0,
		"min":[0],
		"max":[150]
	},
	{
		"count":151,
		"bufferView":31,
		"type":"VEC3",
		"componentType":5126,
		"byteOffset":0,
		"min":[-107.37300109863281,
		-16.515867233276368,
		-21.000585556030275],
		"max":[-83.57658386230469,
		16.515867233276368,
		21.000141143798829]
	},
	{
		"count":151,
		"bufferView":31,
		"type":"VEC3",
		"componentType":5126,
		"byteOffset":12,
		"min":[-0.9941563010215759,
		-1.0,
		-0.9941563010215759],
		"max":[0.9941563010215759,
		1.0,
		0.9941563010215759]
	},
	{
		"count":151,
		"bufferView":31,
		"type":"VEC2",
		"componentType":5126,
		"byteOffset":24,
		"min":[0.0,
		0.0],
		"max":[1.0,
		1.0]
	},
	{
		"count":672,
		"bufferView":32,
		"type":"SCALAR",
		"componentType":5123,
		"byteOffset":0,
		"min":[0],
		"max":[150]
	},
	{
		"count":151,
		"bufferView":33,
		"type":"VEC3",
		"componentType":5126,
		"byteOffset":0,
		"min":[-82.88116455078125,
		-16.515867233276368,
		44.05482864379883],
		"max":[-46.67717742919922,
		16.515867233276368,
		75.92892456054688]
	},
	{
		"count":151,
		"bufferView":33,
		"type":"VEC3",
		"componentType":5126,
		"byteOffset":12,
		"min":[-0.9974687695503235,
		-1.0,
		-0.9898750185966492],
		"max":[0.9974687695503235,
		1.0,
		0.9898750185966492]
	},
	{
		"count":151,
		"bufferView":33,
		"type":"VEC2",
		"componentType":5126,
		"byteOffset":24,
		"min":[0.0,
		0.0],
		"max":[1.0,
		1.0]
	},
	{
		"count":672,
		"bufferView":34,
		"type":"SCALAR",
		"componentType":5123,
		"byteOffset":0,
		"min":[0],
		"max":[150]
	},
	{
		"count":151,
		"bufferView":35,
		"type":"VEC3",
		"componentType":5126,
		"byteOffset":0,
		"min":[-21.07324981689453,
		-16.515867233276368,
		70.21247100830078],
		"max":[21.072580337524415,
		16.515867233276368,
		94.09109497070313]
	},
	{
		"count":151,
		"bufferView":35,
		"type":"VEC3",
		"componentType":5126,
		"byteOffset":12,
		"min":[-0.9975938200950623,
		-1.0,
		-0.9975938200950623],
		"max":[0.9975938200950623,
		1.0,
		0.9975938200950623]
	},
	{
		"count":151,
		"bufferView":35,
		"type":"VEC2",
		"componentType":5126,
		"byteOffset":24,
		"min":[0.0,
		0.0],
		"max":[1.0,
		1.0]
	},
	{
		"count":672,
		"bufferView":36,
		"type":"SCALAR",
		"componentType":5123,
		"byteOffset":0,
		"min":[0],
		"max":[150]
	},
	{
		"count":151,
		"bufferView":37,
		"type":"VEC3",
		"componentType":5126,
		"byteOffset":0,
		"min":[46.67665481567383,
		-16.515867233276368,
		44.05524826049805],
		"max":[82.88064575195313,
		16.515867233276368,
		75.9293441772461]
	},
	{
		"count":151,
		"bufferView":37,
		"type":"VEC3",
		"componentType":5126,
		"byteOffset":12,
		"min":[-0.9974687695503235,
		-1.0,
		-0.9898750185966492],
		"max":[0.9974687695503235,
		1.0,
		0.9898750185966492]
	},
	{
		"count":151,
		"bufferView":37,
		"type":"VEC2",
		"componentType":5126,
		"byteOffset":24,
		"min":[0.0,
		0.0],
		"max":[1.0,
		1.0]
	},
	{
		"count":2880,
		"bufferView":38,
		"type":"SCALAR",
		"componentType":5123,
		"byteOffset":0,
		"min":[0],
		"max":[558]
	},
	{
		"count":559,
		"bufferView":39,
		"type":"VEC3",
		"componentType":5126,
		"byteOffset":0,
		"min":[-100.0,
		-72.0,
		-85.0],
		"max":[100.0,
		72.0,
		85.0]
	},
	{
		"count":559,
		"bufferView":39,
		"type":"VEC3",
		"componentType":5126,
		"byteOffset":12,
		"min":[-1.0,
		-1.0,
		-1.0],
		"max":[1.0,
		1.0,
		1.0]
	},
	{
		"count":559,
		"bufferView":39,
		"type":"VEC2",
		"componentType":5126,
		"byteOffset":24,
		"min":[0.0,
		0.0],
		"max":[1.0,
		1.0]
	}],
	"bufferViews":[{
		"buffer":0,
		"byteOffset":0,
		"byteLength":1344,
		"target":34963
	},
	{
		"buffer":0,
		"byteOffset":1344,
		"byteLength":4832,
		"target":34962,
		"byteStride":32
	},
	{
		"buffer":1,
		"byteOffset":0,
		"byteLength":1344,
		"target":34963
	},
	{
		"buffer":1,
		"byteOffset":1344,
		"byteLength":4832,
		"target":34962,
		"byteStride":32
	},
	{
		"buffer":2,
		"byteOffset":0,
		"byteLength":1344,
		"target":34963
	},
	{
		"buffer":2,
		"byteOffset":1344,
		"byteLength":4832,
		"target":34962,
		"byteStride":32
	},
	{
		"buffer":3,
		"byteOffset":0,
		"byteLength":1344,
		"target":34963
	},
	{
		"buffer":3,
		"byteOffset":1344,
		"byteLength":4832,
		"target":34962,
		"byteStride":32
	},
	{
		"buffer":4,
		"byteOffset":0,
		"byteLength":1344,
		"target":34963
	},
	{
		"buffer":4,
		"byteOffset":1344,
		"byteLength":4832,
		"target":34962,
		"byteStride":32
	},
	{
		"buffer":5,
		"byteOffset":0,
		"byteLength":1344,
		"target":34963
	},
	{
		"buffer":5,
		"byteOffset":1344,
		"byteLength":4832,
		"target":34962,
		"byteStride":32
	},
	{
		"buffer":6,
		"byteOffset":0,
		"byteLength":1344,
		"target":34963
	},
	{
		"buffer":6,
		"byteOffset":1344,
		"byteLength":4832,
		"target":34962,
		"byteStride":32
	},
	{
		"buffer":7,
		"byteOffset":0,
		"byteLength":1344,
		"target":34963
	},
	{
		"buffer":7,
		"byteOffset":1344,
		"byteLength":4832,
		"target":34962,
		"byteStride":32
	},
	{
		"buffer":8,
		"byteOffset":0,
		"byteLength":1344,
		"target":34963
	},
	{
		"buffer":8,
		"byteOffset":1344,
		"byteLength":4832,
		"target":34962,
		"byteStride":32
	},
	{
		"buffer":9,
		"byteOffset":0,
		"byteLength":1344,
		"target":34963
	},
	{
		"buffer":9,
		"byteOffset":1344,
		"byteLength":4832,
		"target":34962,
		"byteStride":32
	},
	{
		"buffer":10,
		"byteOffset":0,
		"byteLength":1344,
		"target":34963
	},
	{
		"buffer":10,
		"byteOffset":1344,
		"byteLength":4832,
		"target":34962,
		"byteStride":32
	},
	{
		"buffer":11,
		"byteOffset":0,
		"byteLength":1344,
		"target":34963
	},
	{
		"buffer":11,
		"byteOffset":1344,
		"byteLength":4832,
		"target":34962,
		"byteStride":32
	},
	{
		"buffer":12,
		"byteOffset":0,
		"byteLength":1344,
		"target":34963
	},
	{
		"buffer":12,
		"byteOffset":1344,
		"byteLength":4832,
		"target":34962,
		"byteStride":32
	},
	{
		"buffer":13,
		"byteOffset":0,
		"byteLength":1344,
		"target":34963
	},
	{
		"buffer":13,
		"byteOffset":1344,
		"byteLength":4832,
		"target":34962,
		"byteStride":32
	},
	{
		"buffer":14,
		"byteOffset":0,
		"byteLength":1344,
		"target":34963
	},
	{
		"buffer":14,
		"byteOffset":1344,
		"byteLength":4832,
		"target":34962,
		"byteStride":32
	},
	{
		"buffer":15,
		"byteOffset":0,
		"byteLength":1344,
		"target":34963
	},
	{
		"buffer":15,
		"byteOffset":1344,
		"byteLength":4832,
		"target":34962,
		"byteStride":32
	},
	{
		"buffer":16,
		"byteOffset":0,
		"byteLength":1344,
		"target":34963
	},
	{
		"buffer":16,
		"byteOffset":1344,
		"byteLength":4832,
		"target":34962,
		"byteStride":32
	},
	{
		"buffer":17,
		"byteOffset":0,
		"byteLength":1344,
		"target":34963
	},
	{
		"buffer":17,
		"byteOffset":1344,
		"byteLength":4832,
		"target":34962,
		"byteStride":32
	},
	{
		"buffer":18,
		"byteOffset":0,
		"byteLength":1344,
		"target":34963
	},
	{
		"buffer":18,
		"byteOffset":1344,
		"byteLength":4832,
		"target":34962,
		"byteStride":32
	},
	{
		"buffer":19,
		"byteOffset":0,
		"byteLength":5760,
		"target":34963
	},
	{
		"buffer":19,
		"byteOffset":5760,
		"byteLength":17888,
		"target":34962,
		"byteStride":32
	}],
	"buffers":[{
		"uri":"data:application/octet-stream;base64,",
		"byteLength":6176
	},
	{
		"uri":"data:application/octet-stream;base64,",
		"byteLength":6176
	},
	{
		"uri":"data:application/octet-stream;base64,",
		"byteLength":6176
	},
	{
		"uri":"data:application/octet-stream;base64,",
		"byteLength":6176
	},
	{
		"uri":"data:application/octet-stream;base64,",
		"byteLength":6176
	},
	{
		"uri":"data:application/octet-stream;base64,",
		"byteLength":6176
	},
	{
		"uri":"data:application/octet-stream;base64,",
		"byteLength":6176
	},
	{
		"uri":"data:application/octet-stream;base64,",
		"byteLength":6176
	},
	{
		"uri":"data:application/octet-stream;base64,",
		"byteLength":6176
	},
	{
		"uri":"data:application/octet-stream;base64,",
		"byteLength":6176
	},
	{
		"uri":"data:application/octet-stream;base64,",
		"byteLength":6176
	},
	{
		"uri":"data:application/octet-stream;base64,",
		"byteLength":6176
	},
	{
		"uri":"data:application/octet-stream;base64,",
		"byteLength":6176
	},
	{
		"uri":"data:application/octet-stream;base64,",
		"byteLength":6176
	},
	{
		"uri":"data:application/octet-stream;base64,",
		"byteLength":6176
	},
	{
		"uri":"data:application/octet-stream;base64,",
		"byteLength":6176
	},
	{
		"uri":"data:application/octet-stream;base64,",
		"byteLength":6176
	},
	{
		"uri":"data:application/octet-stream;base64,",
		"byteLength":6176
	},
	{
		"uri":"data:application/octet-stream;base64,",
		"byteLength":6176
	},
	{
		"uri":"data:application/octet-stream;base64,",
		"byteLength":23648
	}],
	"materials":[{
		"emissiveFactor":[0.0,
		0.0,
		0.0],
		"pbrMetallicRoughness":{
			"baseColorFactor":[1.0,
			1.0,
			1.0,
			1.0],
			"metallicFactor":1.0,
			"roughnessFactor":0.5
		},
		"alphaMode":"OPAQUE",
		"doubleSided":false,
		"name":"default"
	}]
}